Coordinates
version=1
nRows=38
nColumns=12
inDegrees=yes

Units are S.I. units (second, meters, Newtons, ...)
Angles are in degrees

endheader
time	SC_y	SC_z	SC_x	AC_y	AC_z	AC_x	GH_y	GH_z	GH_yy	EL_x	PS_y
       0.0              -37.06          10.64          36.17          36.57         -7.716         -5.069          72.88          29.29          74.35          23.23          118.3
   0.03362              -37.05          10.64          36.17          36.57         -7.718         -5.066          72.89          29.29          74.33          23.24          118.3
   0.06723              -37.05          10.64          36.16          36.57         -7.719         -5.063          72.89          29.29          74.32          23.24          118.3
    0.1008              -37.05          10.65          36.16          36.57         -7.721         -5.061           72.9          29.29          74.31          23.25          118.3
    0.1345              -37.04          10.65          36.16          36.57         -7.723         -5.057           72.9          29.29          74.29          23.26          118.3
    0.1681              -37.04          10.66          36.16          36.57         -7.725         -5.054           72.9          29.28          74.28          23.26          118.3
    0.2017              -37.03          10.66          36.16          36.57         -7.727         -5.051          72.91          29.28          74.26          23.27          118.2
    0.2353              -37.03          10.67          36.16          36.57          -7.73         -5.047          72.91          29.28          74.24          23.28          118.2
    0.2689              -37.02          10.67          36.15          36.57         -7.732         -5.043          72.92          29.28          74.23          23.29          118.2
    0.3025              -37.02          10.68          36.15          36.57         -7.735         -5.038          72.92          29.27          74.21           23.3          118.2
    0.3362              -37.01          10.68          36.15          36.58         -7.738         -5.034          72.93          29.27          74.18          23.31          118.2
    0.3698               -37.0          10.69          36.15          36.58         -7.741         -5.029          72.94          29.27          74.16          23.32          118.1
    0.4034               -37.0           10.7          36.14          36.58         -7.744         -5.023          72.94          29.26          74.14          23.33          118.1
     0.437              -36.99           10.7          36.14          36.58         -7.748         -5.018          72.95          29.26          74.11          23.34          118.1
    0.4706              -36.98          10.71          36.14          36.58         -7.751         -5.011          72.96          29.25          74.08          23.36          118.1
    0.5042              -36.97          10.72          36.13          36.58         -7.756         -5.004          72.97          29.25          74.05          23.37          118.0
    0.5379              -36.96          10.73          36.13          36.58          -7.76         -4.997          72.98          29.24          74.01          23.39          118.0
    0.5715              -36.95          10.74          36.12          36.59         -7.765         -4.989          72.99          29.24          73.98           23.4          118.0
    0.6051              -36.94          10.75          36.12          36.59         -7.771          -4.98           73.0          29.23          73.94          23.42          117.9
    0.6387              -36.93          10.76          36.11          36.59         -7.777          -4.97          73.01          29.22          73.89          23.44          117.9
    0.6723              -36.91          10.78          36.11          36.59         -7.783          -4.96          73.03          29.22          73.84          23.47          117.8
    0.7059               -36.9          10.79           36.1           36.6          -7.79         -4.948          73.04          29.21          73.79          23.49          117.8
    0.7395              -36.88          10.81          36.09           36.6         -7.798         -4.935          73.06           29.2          73.73          23.52          117.7
    0.7732              -36.86          10.83          36.09           36.6         -7.807         -4.921          73.08          29.19          73.66          23.55          117.7
    0.8068              -36.84          10.85          36.08          36.61         -7.817         -4.905           73.1          29.18          73.59          23.58          117.6
    0.8404              -36.82          10.87          36.07          36.61         -7.828         -4.887          73.12          29.16          73.51          23.62          117.5
     0.874              -36.79           10.9          36.06          36.62          -7.84         -4.867          73.15          29.15          73.41          23.66          117.4
    0.9076              -36.76          10.92          36.05          36.62         -7.854         -4.845          73.18          29.13          73.31          23.71          117.3
    0.9412              -36.73          10.96          36.03          36.63         -7.869          -4.82          73.21          29.12          73.19          23.77          117.2
    0.9749              -36.69          10.99          36.02          36.64         -7.887         -4.791          73.25           29.1          73.06          23.83          117.1
     1.008              -36.65          11.04           36.0          36.65         -7.907         -4.758          73.29          29.07          72.91           23.9          116.9
     1.042               -36.6          11.08          35.98          36.65          -7.93          -4.72          73.34          29.05          72.74          23.98          116.8
     1.076              -36.54          11.14          35.95          36.67         -7.956         -4.677           73.4          29.01          72.53          24.07          116.6
     1.109              -36.48          11.21          35.93          36.68         -7.987         -4.627          73.47          28.98           72.3          24.18          116.3
     1.143               -36.4          11.28          35.89          36.69         -8.024         -4.567          73.54          28.94          72.03           24.3          116.1
     1.177              -36.31          11.37          35.86          36.71         -8.066         -4.498          73.64          28.89          71.71          24.45          115.8
      1.21               -36.2          11.48          35.81          36.73         -8.117         -4.415          73.75          28.83          71.32          24.63          115.4
     1.244              -36.07           11.6          35.76          36.76         -8.178         -4.316          73.88          28.76          70.87          24.84          115.0
